<svg width="43" height="43" viewBox="0 0 43 43" fill="none" xmlns="http://www.w3.org/2000/svg">
<path d="M19.3115 28.459C20.2344 30.7904 20.4024 31.8677 21.0137 32.5205C21.6053 33.1921 22.64 33.4399 24.8408 34.5479C22.5702 35.4955 21.5215 35.6683 20.8857 36.2959C20.2316 36.9034 19.9903 37.9657 18.9111 40.2256C17.9882 37.8939 17.8193 36.8169 17.208 36.1641C16.6164 35.4924 15.5818 35.2448 13.3809 34.1367C15.6517 33.1891 16.7011 33.0163 17.3369 32.3887C17.9911 31.7812 18.2324 30.7188 19.3115 28.459ZM30.4473 15.2715C32.5093 18.3965 33.0838 19.9224 34.1787 20.6846C35.2507 21.4806 36.8443 21.5127 40.4102 22.4336C37.3662 24.5513 35.8789 25.1411 35.1367 26.2656C34.3616 27.3663 34.3304 29.0023 33.4336 32.6631C31.3715 29.538 30.7972 28.0121 29.7021 27.25C28.6301 26.4539 27.0365 26.422 23.4707 25.501C26.5147 23.3833 28.0019 22.7934 28.7441 21.6689C29.5193 20.5682 29.5505 18.9323 30.4473 15.2715ZM15.332 2.98828C16.9376 7.74396 17.1643 9.91353 18.3184 11.2832C19.4315 12.6882 21.4732 13.2937 25.7559 15.7432C21.1238 17.392 19.0116 17.6252 17.6777 18.8105C16.3094 19.9535 15.7195 22.049 13.334 26.4463C11.7283 21.6903 11.502 19.5209 10.3477 18.1514C9.23456 16.7462 7.19291 16.141 2.91016 13.6914C7.54198 12.0428 9.65445 11.8101 10.9883 10.625C12.3568 9.48197 12.9464 7.38582 15.332 2.98828Z" fill="#CAA257"/>
</svg>
